<svg width="66" height="66" viewBox="0 0 66 66" fill="none" xmlns="http://www.w3.org/2000/svg">
<path d="M22 38.5V44L27.5 38.5L33 33H27.5L22 38.5Z" fill="#22C48E" fill-opacity="0.47"/>
<path d="M44 27.5V22L38.5 27.5L33 33H38.5L44 27.5Z" fill="#22C48E" fill-opacity="0.47"/>
<path d="M33 33V38.5L38.5 44H44L38.5 38.5L33 33Z" fill="#22C48E" fill-opacity="0.47"/>
<path d="M27.5 22H22L27.5 27.5L33 33V27.5L27.5 22Z" fill="#22C48E" fill-opacity="0.47"/>
<path d="M33 22H38.5L33 27.5V22Z" fill="#22C48E" fill-opacity="0.47"/>
<path d="M44 33V38.5L38.5 33H44Z" fill="#22C48E" fill-opacity="0.47"/>
<path d="M33 44H27.5L33 38.5V44Z" fill="#22C48E" fill-opacity="0.47"/>
<path d="M22 33V27.5L27.5 33H22Z" fill="#22C48E" fill-opacity="0.47"/>
<path d="M5.96046e-08 38.5V44L5.5 38.5L11 33H5.5L5.96046e-08 38.5Z" fill="#22C48E" fill-opacity="0.47"/>
<path d="M22 27.5V22L16.5 27.5L11 33H16.5L22 27.5Z" fill="#22C48E" fill-opacity="0.47"/>
<path d="M11 33V38.5L16.5 44H22L16.5 38.5L11 33Z" fill="#22C48E" fill-opacity="0.47"/>
<path d="M5.5 22H5.96046e-08L5.5 27.5L11 33V27.5L5.5 22Z" fill="#22C48E" fill-opacity="0.47"/>
<path d="M11 22H16.5L11 27.5V22Z" fill="#22C48E" fill-opacity="0.47"/>
<path d="M22 33V38.5L16.5 33H22Z" fill="#22C48E" fill-opacity="0.47"/>
<path d="M11 44H5.5L11 38.5V44Z" fill="#22C48E" fill-opacity="0.47"/>
<path d="M0 33L0 27.5L5.5 33H0Z" fill="#22C48E" fill-opacity="0.47"/>
<path d="M44 38.5V44L49.5 38.5L55 33H49.5L44 38.5Z" fill="#22C48E" fill-opacity="0.47"/>
<path d="M66 27.5V22L60.5 27.5L55 33H60.5L66 27.5Z" fill="#22C48E" fill-opacity="0.47"/>
<path d="M55 33V38.5L60.5 44H66L60.5 38.5L55 33Z" fill="#22C48E" fill-opacity="0.47"/>
<path d="M49.5 22H44L49.5 27.5L55 33V27.5L49.5 22Z" fill="#22C48E" fill-opacity="0.47"/>
<path d="M55 22H60.5L55 27.5V22Z" fill="#22C48E" fill-opacity="0.47"/>
<path d="M66 33V38.5L60.5 33H66Z" fill="#22C48E" fill-opacity="0.47"/>
<path d="M55 44H49.5L55 38.5V44Z" fill="#22C48E" fill-opacity="0.47"/>
<path d="M44 33V27.5L49.5 33H44Z" fill="#22C48E" fill-opacity="0.47"/>
<path d="M22 16.5V22L27.5 16.5L33 11H27.5L22 16.5Z" fill="#22C48E" fill-opacity="0.47"/>
<path d="M44 5.5V5.96046e-08L38.5 5.5L33 11H38.5L44 5.5Z" fill="#22C48E" fill-opacity="0.47"/>
<path d="M33 11V16.5L38.5 22H44L38.5 16.5L33 11Z" fill="#22C48E" fill-opacity="0.47"/>
<path d="M27.5 5.96046e-08H22L27.5 5.5L33 11V5.5L27.5 5.96046e-08Z" fill="#22C48E" fill-opacity="0.47"/>
<path d="M33 0H38.5L33 5.5V0Z" fill="#22C48E" fill-opacity="0.47"/>
<path d="M44 11V16.5L38.5 11H44Z" fill="#22C48E" fill-opacity="0.47"/>
<path d="M33 22H27.5L33 16.5V22Z" fill="#22C48E" fill-opacity="0.47"/>
<path d="M22 11V5.5L27.5 11L22 11Z" fill="#22C48E" fill-opacity="0.47"/>
<path d="M22 60.5V66L27.5 60.5L33 55H27.5L22 60.5Z" fill="#22C48E" fill-opacity="0.47"/>
<path d="M44 49.5V44L38.5 49.5L33 55H38.5L44 49.5Z" fill="#22C48E" fill-opacity="0.47"/>
<path d="M33 55V60.5L38.5 66H44L38.5 60.5L33 55Z" fill="#22C48E" fill-opacity="0.47"/>
<path d="M27.5 44H22L27.5 49.5L33 55V49.5L27.5 44Z" fill="#22C48E" fill-opacity="0.47"/>
<path d="M33 44H38.5L33 49.5V44Z" fill="#22C48E" fill-opacity="0.47"/>
<path d="M44 55V60.5L38.5 55H44Z" fill="#22C48E" fill-opacity="0.47"/>
<path d="M33 66H27.5L33 60.5V66Z" fill="#22C48E" fill-opacity="0.47"/>
<path d="M22 55V49.5L27.5 55H22Z" fill="#22C48E" fill-opacity="0.47"/>
<path d="M5.96046e-08 60.5V66L5.5 60.5L11 55H5.5L5.96046e-08 60.5Z" fill="#22C48E" fill-opacity="0.47"/>
<path d="M22 49.5V44L16.5 49.5L11 55H16.5L22 49.5Z" fill="#22C48E" fill-opacity="0.47"/>
<path d="M11 55V60.5L16.5 66H22L16.5 60.5L11 55Z" fill="#22C48E" fill-opacity="0.47"/>
<path d="M5.5 44H5.96046e-08L5.5 49.5L11 55V49.5L5.5 44Z" fill="#22C48E" fill-opacity="0.47"/>
<path d="M11 44H16.5L11 49.5V44Z" fill="#22C48E" fill-opacity="0.47"/>
<path d="M22 55V60.5L16.5 55H22Z" fill="#22C48E" fill-opacity="0.47"/>
<path d="M11 66H5.5L11 60.5V66Z" fill="#22C48E" fill-opacity="0.47"/>
<path d="M0 55L0 49.5L5.5 55H0Z" fill="#22C48E" fill-opacity="0.47"/>
<path d="M5.96046e-08 16.5V22L5.5 16.5L11 11H5.5L5.96046e-08 16.5Z" fill="#22C48E" fill-opacity="0.47"/>
<path d="M22 5.5V5.96046e-08L16.5 5.5L11 11H16.5L22 5.5Z" fill="#22C48E" fill-opacity="0.47"/>
<path d="M11 11V16.5L16.5 22H22L16.5 16.5L11 11Z" fill="#22C48E" fill-opacity="0.47"/>
<path d="M5.5 5.96046e-08H5.96046e-08L5.5 5.5L11 11V5.5L5.5 5.96046e-08Z" fill="#22C48E" fill-opacity="0.47"/>
<path d="M11 0H16.5L11 5.5V0Z" fill="#22C48E" fill-opacity="0.47"/>
<path d="M22 11V16.5L16.5 11H22Z" fill="#22C48E" fill-opacity="0.47"/>
<path d="M11 22H5.5L11 16.5V22Z" fill="#22C48E" fill-opacity="0.47"/>
<path d="M0 11L0 5.5L5.5 11L0 11Z" fill="#22C48E" fill-opacity="0.47"/>
<path d="M44 16.5V22L49.5 16.5L55 11H49.5L44 16.5Z" fill="#22C48E" fill-opacity="0.47"/>
<path d="M66 5.5V5.96046e-08L60.5 5.5L55 11H60.5L66 5.5Z" fill="#22C48E" fill-opacity="0.47"/>
<path d="M55 11V16.5L60.5 22H66L60.5 16.5L55 11Z" fill="#22C48E" fill-opacity="0.47"/>
<path d="M49.5 5.96046e-08H44L49.5 5.5L55 11V5.5L49.5 5.96046e-08Z" fill="#22C48E" fill-opacity="0.47"/>
<path d="M55 0H60.5L55 5.5V0Z" fill="#22C48E" fill-opacity="0.47"/>
<path d="M66 11V16.5L60.5 11H66Z" fill="#22C48E" fill-opacity="0.47"/>
<path d="M55 22H49.5L55 16.5V22Z" fill="#22C48E" fill-opacity="0.47"/>
<path d="M44 11V5.5L49.5 11L44 11Z" fill="#22C48E" fill-opacity="0.47"/>
<path d="M44 59.5V65L49.5 59.5L55 54H49.5L44 59.5Z" fill="#22C48E" fill-opacity="0.47"/>
<path d="M66 48.5V43L60.5 48.5L55 54H60.5L66 48.5Z" fill="#22C48E" fill-opacity="0.47"/>
<path d="M55 54V59.5L60.5 65H66L60.5 59.5L55 54Z" fill="#22C48E" fill-opacity="0.47"/>
<path d="M49.5 43H44L49.5 48.5L55 54V48.5L49.5 43Z" fill="#22C48E" fill-opacity="0.47"/>
<path d="M55 43H60.5L55 48.5V43Z" fill="#22C48E" fill-opacity="0.47"/>
<path d="M66 54V59.5L60.5 54H66Z" fill="#22C48E" fill-opacity="0.47"/>
<path d="M55 65H49.5L55 59.5V65Z" fill="#22C48E" fill-opacity="0.47"/>
<path d="M44 54V48.5L49.5 54H44Z" fill="#22C48E" fill-opacity="0.47"/>

<defs>
<filter id="filter0_d" x="4.12012" y="9.44" width="57.52" height="48.56" filterUnits="userSpaceOnUse" color-interpolation-filters="sRGB">
<feFlood flood-opacity="0" result="BackgroundImageFix"/>
<feColorMatrix in="SourceAlpha" type="matrix" values="0 0 0 0 0 0 0 0 0 0 0 0 0 0 0 0 0 0 127 0"/>
<feOffset/>
<feGaussianBlur stdDeviation="5"/>
<feColorMatrix type="matrix" values="0 0 0 0 0 0 0 0 0 0 0 0 0 0 0 0 0 0 0.5 0"/>
<feBlend mode="normal" in2="BackgroundImageFix" result="effect1_dropShadow"/>
<feBlend mode="normal" in="SourceGraphic" in2="effect1_dropShadow" result="shape"/>
</filter>
</defs>
</svg>