<svg width="45" height="45" viewBox="0 0 45 45" fill="none" xmlns="http://www.w3.org/2000/svg">
<path d="M13.7001 35.8L14.3001 36.1C16.8001 37.6 19.6001 38.3 22.4001 38.3C31.2001 38.3 38.4001 31.1 38.4001 22.3C38.4001 18.1 36.7001 14 33.7001 11C30.7001 8.00005 26.7001 6.30005 22.4001 6.30005C13.6001 6.30005 6.40005 13.5 6.50005 22.4C6.50005 25.4 7.40005 28.3 8.90005 30.8L9.30005 31.4L7.70005 37.3L13.7001 35.8Z" fill="#00E676"/>
<g filter="url(#filter0_d)">
<path d="M35.4 9.4C32 5.9 27.3 4 22.5 4C12.3 4 4.1 12.3 4.2 22.4C4.2 25.6 5.1 28.7 6.6 31.5L4 41L13.7 38.5C16.4 40 19.4 40.7 22.4 40.7C32.5 40.7 40.7 32.4 40.7 22.3C40.7 17.4 38.8 12.8 35.4 9.4ZM22.5 37.6C19.8 37.6 17.1 36.9 14.8 35.5L14.2 35.2L8.4 36.7L9.9 31L9.5 30.4C5.1 23.3 7.2 13.9 14.4 9.5C21.6 5.1 30.9 7.2 35.3 14.4C39.7 21.6 37.6 30.9 30.4 35.3C28.1 36.8 25.3 37.6 22.5 37.6ZM31.3 26.5L30.2 26C30.2 26 28.6 25.3 27.6 24.8C27.5 24.8 27.4 24.7 27.3 24.7C27 24.7 26.8 24.8 26.6 24.9C26.6 24.9 26.5 25 25.1 26.6C25 26.8 24.8 26.9 24.6 26.9H24.5C24.4 26.9 24.2 26.8 24.1 26.7L23.6 26.5C22.5 26 21.5 25.4 20.7 24.6C20.5 24.4 20.2 24.2 20 24C19.3 23.3 18.6 22.5 18.1 21.6L18 21.4C17.9 21.3 17.9 21.2 17.8 21C17.8 20.8 17.8 20.6 17.9 20.5C17.9 20.5 18.3 20 18.6 19.7C18.8 19.5 18.9 19.2 19.1 19C19.3 18.7 19.4 18.3 19.3 18C19.2 17.5 18 14.8 17.7 14.2C17.5 13.9 17.3 13.8 17 13.7H16.7C16.5 13.7 16.2 13.7 15.9 13.7C15.7 13.7 15.5 13.8 15.3 13.8L15.2 13.9C15 14 14.8 14.2 14.6 14.3C14.4 14.5 14.3 14.7 14.1 14.9C13.4 15.8 13 16.9 13 18C13 18.8 13.2 19.6 13.5 20.3L13.6 20.6C14.5 22.5 15.7 24.2 17.3 25.7L17.7 26.1C18 26.4 18.3 26.6 18.5 26.9C20.6 28.7 23 30 25.7 30.7C26 30.8 26.4 30.8 26.7 30.9C27 30.9 27.4 30.9 27.7 30.9C28.2 30.9 28.8 30.7 29.2 30.5C29.5 30.3 29.7 30.3 29.9 30.1L30.1 29.9C30.3 29.7 30.5 29.6 30.7 29.4C30.9 29.2 31.1 29 31.2 28.8C31.4 28.4 31.5 27.9 31.6 27.4C31.6 27.2 31.6 26.9 31.6 26.7C31.6 26.7 31.5 26.6 31.3 26.5Z" fill="white"/>
</g>
<defs>
<filter id="filter0_d" x="0" y="0" width="44.7" height="45" filterUnits="userSpaceOnUse" color-interpolation-filters="sRGB">
<feFlood flood-opacity="0" result="BackgroundImageFix"/>
<feColorMatrix in="SourceAlpha" type="matrix" values="0 0 0 0 0 0 0 0 0 0 0 0 0 0 0 0 0 0 127 0"/>
<feOffset/>
<feGaussianBlur stdDeviation="2"/>
<feColorMatrix type="matrix" values="0 0 0 0 0 0 0 0 0 0 0 0 0 0 0 0 0 0 0.25 0"/>
<feBlend mode="normal" in2="BackgroundImageFix" result="effect1_dropShadow"/>
<feBlend mode="normal" in="SourceGraphic" in2="effect1_dropShadow" result="shape"/>
</filter>
</defs>
</svg>
