<svg width="800" height="328" viewBox="0 0 800 328" fill="none" xmlns="http://www.w3.org/2000/svg">
<path d="M608.992 213.811C608.992 217.305 605.926 218.653 602.86 218.105L603.371 221.011C607.927 221.642 612.313 218.863 612.313 213.768C612.313 209.389 609.034 206.568 605.159 206.568C602.221 206.568 600.433 207.916 599.624 209.011H599.454V201.979H615.166V199.284H580.505V201.979H596.26V212.842C596.26 216 594.216 218.147 591.193 218.147C588.51 218.147 586.722 216.295 586.722 213.768C586.722 210.232 589.788 208.926 592.853 209.432L592.342 206.526C587.744 205.937 583.358 208.716 583.358 213.811C583.358 218.105 586.722 221.011 590.597 221.011C593.577 221.011 595.281 219.621 596.09 218.611H596.26V226.316H599.454V214.737C599.454 211.579 601.497 209.432 604.521 209.432C607.161 209.432 608.992 211.2 608.992 213.811Z" fill="black"/>
<path d="M621.618 201.979H626.771V199.284H613.272V201.979H618.425V226.316H621.618V201.979Z" fill="black"/>
<path d="M648.382 210.021L655.067 208.421V201.979H661.326V199.284H637.183V201.979H651.831V206.189L646.721 207.453C642.335 208.505 640.121 210.821 640.121 214.484C640.121 218.947 643.868 223.284 649.872 223.284C651.362 223.284 652.853 222.989 654.002 222.442L657.111 228L660.9 227.074L656.174 221.137C656.94 220.463 657.664 219.326 657.664 217.642C657.664 215.832 656.472 214.653 655.535 214.189L653.193 215.032V219.326C652.469 219.958 651.107 220.379 649.446 220.379C645.912 220.421 643.4 217.937 643.4 214.863C643.4 212.505 644.634 210.989 648.382 210.021Z" fill="black"/>
<path d="M667.817 226.316V201.979H672.97V199.284H667.519L658.279 188H655.067L657.733 191.228C659.266 192.997 659.507 192.983 664.539 199.284H659.471V201.979H664.624V226.316H667.817Z" fill="black"/>
<path d="M689.51 212.084C687.934 212.084 686.316 211.874 684.996 211.495C685.081 211.074 685.124 210.611 685.124 210.105V201.979H706.159V207.874H699.601C696.663 207.874 694.194 209.263 692.916 211.705C691.979 211.958 690.787 212.084 689.51 212.084ZM697.728 226.611L700.283 224.716C697.6 222.737 695.386 219.789 695.386 215.579C695.386 212.463 697.345 210.737 700.198 210.737H706.159V226.316H709.353V201.979H714.505V199.284H671.115V201.979H681.93V209.811C681.93 211.747 680.951 212.547 679.12 212.547C677.119 212.547 675.969 211.453 675.245 210.653L672.818 212.547L683.804 226.779L686.401 225.095L681.419 218.695C680.27 217.179 679.418 216.253 678.481 215.2L678.566 215.074C679.035 215.2 679.759 215.2 680.184 215.2C681.504 215.158 682.739 214.737 683.634 213.895C685.209 214.568 687.466 214.989 689.637 214.989C690.574 214.989 691.383 214.947 692.107 214.863C692.065 215.074 692.065 215.284 692.065 215.537C692.065 220.547 694.705 224.337 697.728 226.611Z" fill="black"/>
<path d="M302.558 194.65V225.786H299.505V194.65H302.558Z" fill="#333333"/>
<path d="M329.797 201.02C332.647 201.02 334.973 201.926 336.776 203.737C338.578 205.519 339.48 208.117 339.48 211.532V225.786H336.47V211.889C336.47 209.246 335.816 207.227 334.508 205.831C333.228 204.435 331.469 203.737 329.23 203.737C326.933 203.737 325.101 204.48 323.734 205.964C322.368 207.449 321.684 209.632 321.684 212.512V225.786H318.631V201.466H321.684V205.608C322.44 204.123 323.531 202.995 324.956 202.223C326.38 201.421 327.994 201.02 329.797 201.02Z" fill="#333333"/>
<path d="M363.853 222.757L371.879 201.466H375.106L365.554 225.786H362.109L352.557 201.466H355.828L363.853 222.757Z" fill="#333333"/>
<path d="M409.95 212.379C409.95 213.448 409.921 214.264 409.863 214.829H390.105C390.192 216.67 390.628 218.244 391.413 219.55C392.198 220.857 393.231 221.852 394.51 222.535C395.789 223.188 397.185 223.515 398.697 223.515C400.674 223.515 402.332 223.025 403.669 222.045C405.036 221.065 405.937 219.743 406.374 218.08H409.601C409.02 220.456 407.769 222.401 405.85 223.916C403.96 225.4 401.576 226.143 398.697 226.143C396.458 226.143 394.452 225.638 392.678 224.628C390.904 223.589 389.509 222.134 388.491 220.263C387.502 218.362 387.008 216.15 387.008 213.626C387.008 211.102 387.502 208.889 388.491 206.989C389.48 205.088 390.861 203.633 392.634 202.624C394.408 201.614 396.429 201.109 398.697 201.109C400.965 201.109 402.942 201.614 404.629 202.624C406.344 203.633 407.653 204.999 408.554 206.722C409.485 208.414 409.95 210.3 409.95 212.379ZM406.853 212.29C406.882 210.478 406.519 208.934 405.763 207.657C405.036 206.38 404.033 205.415 402.753 204.762C401.474 204.108 400.078 203.782 398.566 203.782C396.298 203.782 394.365 204.524 392.765 206.009C391.166 207.494 390.279 209.587 390.105 212.29H406.853Z" fill="#333333"/>
<path d="M432.895 226.143C430.162 226.143 427.923 225.504 426.178 224.227C424.463 222.921 423.503 221.154 423.3 218.927H426.44C426.586 220.293 427.211 221.406 428.316 222.267C429.45 223.099 430.962 223.515 432.852 223.515C434.509 223.515 435.803 223.114 436.734 222.312C437.693 221.51 438.173 220.515 438.173 219.328C438.173 218.496 437.911 217.813 437.388 217.279C436.864 216.744 436.196 216.328 435.381 216.031C434.596 215.705 433.521 215.363 432.154 215.007C430.38 214.532 428.941 214.057 427.836 213.581C426.731 213.106 425.786 212.408 425.001 211.488C424.245 210.538 423.867 209.276 423.867 207.702C423.867 206.514 424.216 205.415 424.914 204.405C425.611 203.396 426.6 202.594 427.879 202C429.159 201.406 430.613 201.109 432.241 201.109C434.8 201.109 436.864 201.777 438.435 203.114C440.005 204.42 440.848 206.232 440.964 208.548H437.911C437.824 207.123 437.271 205.979 436.254 205.118C435.265 204.227 433.899 203.782 432.154 203.782C430.613 203.782 429.362 204.153 428.403 204.895C427.443 205.638 426.964 206.558 426.964 207.657C426.964 208.607 427.24 209.394 427.792 210.018C428.374 210.612 429.086 211.087 429.929 211.443C430.773 211.77 431.907 212.141 433.331 212.557C435.047 213.032 436.414 213.492 437.431 213.938C438.449 214.383 439.321 215.037 440.048 215.898C440.775 216.759 441.153 217.902 441.182 219.328C441.182 220.634 440.834 221.807 440.136 222.846C439.438 223.856 438.464 224.658 437.213 225.252C435.963 225.846 434.524 226.143 432.895 226.143Z" fill="#333333"/>
<path d="M460.058 204.094V219.194C460.058 220.679 460.334 221.703 460.887 222.267C461.439 222.832 462.413 223.114 463.809 223.114H466.6V225.786H463.329C461.178 225.786 459.578 225.282 458.531 224.272C457.485 223.233 456.961 221.54 456.961 219.194V204.094H453.646V201.466H456.961V195.363H460.058V201.466H466.6V204.094H460.058Z" fill="#333333"/>
<path d="M491.219 226.143C488.981 226.143 486.96 225.638 485.157 224.628C483.383 223.589 481.973 222.134 480.926 220.263C479.908 218.362 479.399 216.15 479.399 213.626C479.399 211.102 479.923 208.904 480.97 207.034C482.016 205.133 483.441 203.678 485.244 202.668C487.047 201.629 489.068 201.109 491.307 201.109C493.546 201.109 495.567 201.629 497.369 202.668C499.201 203.678 500.626 205.133 501.644 207.034C502.691 208.904 503.214 211.102 503.214 213.626C503.214 216.12 502.691 218.318 501.644 220.218C500.597 222.119 499.158 223.589 497.326 224.628C495.494 225.638 493.458 226.143 491.219 226.143ZM491.219 223.426C492.79 223.426 494.244 223.069 495.581 222.356C496.919 221.614 497.995 220.515 498.809 219.06C499.652 217.575 500.074 215.764 500.074 213.626C500.074 211.488 499.666 209.691 498.852 208.236C498.038 206.751 496.962 205.653 495.625 204.94C494.287 204.198 492.833 203.826 491.263 203.826C489.693 203.826 488.239 204.198 486.901 204.94C485.564 205.653 484.488 206.751 483.674 208.236C482.889 209.691 482.496 211.488 482.496 213.626C482.496 215.764 482.889 217.575 483.674 219.06C484.488 220.515 485.549 221.614 486.858 222.356C488.195 223.069 489.649 223.426 491.219 223.426Z" fill="#333333"/>
<path d="M520.992 205.786C521.661 204.272 522.679 203.099 524.045 202.267C525.441 201.436 527.142 201.02 529.148 201.02V204.272H528.32C526.11 204.272 524.336 204.881 522.998 206.098C521.661 207.316 520.992 209.35 520.992 212.201V225.786H517.939V201.466H520.992V205.786Z" fill="#333333"/>
<path d="M551.101 226.143C548.367 226.143 546.128 225.504 544.384 224.227C542.668 222.921 541.708 221.154 541.505 218.927H544.645C544.791 220.293 545.416 221.406 546.521 222.267C547.655 223.099 549.167 223.515 551.057 223.515C552.714 223.515 554.008 223.114 554.939 222.312C555.898 221.51 556.378 220.515 556.378 219.328C556.378 218.496 556.116 217.813 555.593 217.279C555.07 216.744 554.401 216.328 553.587 216.031C552.802 215.705 551.726 215.363 550.359 215.007C548.585 214.532 547.146 214.057 546.041 213.581C544.936 213.106 543.991 212.408 543.206 211.488C542.45 210.538 542.072 209.276 542.072 207.702C542.072 206.514 542.421 205.415 543.119 204.405C543.817 203.396 544.805 202.594 546.085 202C547.364 201.406 548.818 201.109 550.446 201.109C553.005 201.109 555.07 201.777 556.64 203.114C558.21 204.42 559.053 206.232 559.17 208.548H556.116C556.029 207.123 555.477 205.979 554.459 205.118C553.47 204.227 552.104 203.782 550.359 203.782C548.818 203.782 547.568 204.153 546.608 204.895C545.648 205.638 545.169 206.558 545.169 207.657C545.169 208.607 545.445 209.394 545.997 210.018C546.579 210.612 547.291 211.087 548.135 211.443C548.978 211.77 550.112 212.141 551.537 212.557C553.252 213.032 554.619 213.492 555.637 213.938C556.654 214.383 557.527 215.037 558.254 215.898C558.981 216.759 559.359 217.902 559.388 219.328C559.388 220.634 559.039 221.807 558.341 222.846C557.643 223.856 556.669 224.658 555.419 225.252C554.168 225.846 552.729 226.143 551.101 226.143Z" fill="#333333"/>
<path d="M310.612 138.951C301.149 135.65 290.366 130.369 290.366 118.485C290.366 109.243 298.508 100.22 311.492 100.22C324.916 100.22 332.618 110.563 332.618 110.563L324.916 118.045C324.916 118.045 319.634 110.783 311.492 110.783C305.99 110.783 301.589 114.304 301.589 118.485C301.589 124.207 306.651 125.968 315.453 129.269C325.356 133.01 333.498 137.411 333.498 149.074C333.498 160.738 323.155 167.12 311.052 167.12C294.987 167.12 287.505 153.916 287.505 153.916L295.867 146.874C295.867 146.874 301.369 156.557 311.272 156.557C316.773 156.557 322.495 154.356 322.495 149.074C322.495 143.573 318.314 141.592 310.612 138.951Z" fill="#1E1E1E"/>
<path d="M364.308 111.663H346.482V101.1H393.136V111.663H375.311V165.799H364.308V111.663Z" fill="#1E1E1E"/>
<path d="M468.178 133.67C468.178 152.815 454.314 167.12 435.389 167.12C416.463 167.12 402.599 152.815 402.599 133.67C402.599 114.524 416.463 100.22 435.389 100.22C454.314 100.22 468.178 114.524 468.178 133.67ZM456.955 133.67C456.955 121.126 448.592 110.783 435.609 110.783C422.625 110.783 414.262 121.126 414.262 133.67C414.262 146.213 422.625 156.557 435.609 156.557C448.372 156.557 456.955 145.993 456.955 133.67Z" fill="#1E1E1E"/>
<path d="M531.557 148.634L539.039 155.896C539.039 155.896 530.456 166.9 514.171 166.9C495.466 166.9 481.382 152.595 481.382 133.45C481.382 114.304 495.466 100 514.171 100C529.796 100 538.159 110.123 538.159 110.123L530.676 117.385C530.676 117.385 524.955 110.343 514.171 110.343C501.408 110.343 492.605 120.906 492.605 133.45C492.605 145.994 501.408 156.557 514.171 156.557C525.615 156.557 531.557 148.634 531.557 148.634Z" fill="#1E1E1E"/>
<path d="M565.447 130.149L588.554 101.1H602.418L577.11 132.79L605.498 165.579H590.754L565.447 136.311V165.579H554.443V101.32H565.447V130.149Z" fill="#1E1E1E"/>
<path d="M620.683 101.32H631.686V166.019H620.683V101.32Z" fill="#1E1E1E"/>
<path d="M664.696 127.508H690.003V138.071H664.696V165.799H653.693V101.32H691.984V111.883H664.696V127.508Z" fill="#1E1E1E"/>
<path d="M710.469 101.32H721.472V166.019H710.469V101.32Z" fill="#1E1E1E"/>
<path d="M131.595 243.171L158.883 259.016V228.427" fill="#22C48E"/>
<path d="M186.171 212.583L163.945 225.566L186.171 212.583Z" fill="#29CF9B"/>
<path d="M79 183.094L105.408 167.029L158.883 196.738L211.479 166.369L238.767 186.175L186.172 212.582L163.945 225.566L158.883 228.427" fill="#29CF9B"/>
<path d="M158.883 68L79 114.214L105.408 134.68L158.883 103.65L211.479 134.46L238.767 114.214L185.951 83.6246L158.883 68Z" fill="#29CF9B"/>
<path d="M211.479 130.058V160.647V197.838L184.851 181.774V145.023L158.884 129.618V99.2493L211.479 130.058Z" fill="#22C48E"/>
<path d="M211.479 130.058L238.767 114.214V212.583L186.172 243.172L158.884 259.016V228.427L211.479 197.838" fill="#16895D"/>
<path d="M158.883 99.2493V129.618L132.036 145.023V181.774L105.408 197.838V159.767V160.867V130.278L158.883 99.2493Z" fill="#16895D"/>
<path d="M158.883 228.427V259.016L102.987 226.447L79 212.583V114.214L105.408 130.278V197.838L158.883 228.427Z" fill="#22C48E"/>
</svg>
